<svg xmlns="http://www.w3.org/2000/svg" viewBox="0 0 300 400" preserveAspectRatio="xMidYMid slice"><g fill="currentColor"><circle cx="30" cy="40" r="4"/><circle cx="90" cy="40" r="4"/><circle cx="150" cy="40" r="4"/><circle cx="210" cy="40" r="4"/><circle cx="270" cy="40" r="4"/><circle cx="60" cy="100" r="4"/><circle cx="120" cy="100" r="4"/><circle cx="180" cy="100" r="4"/><circle cx="240" cy="100" r="4"/><circle cx="300" cy="100" r="4"/><circle cx="30" cy="160" r="4"/><circle cx="90" cy="160" r="4"/><circle cx="150" cy="160" r="4"/><circle cx="210" cy="160" r="4"/><circle cx="270" cy="160" r="4"/><circle cx="60" cy="220" r="4"/><circle cx="120" cy="220" r="4"/><circle cx="180" cy="220" r="4"/><circle cx="240" cy="220" r="4"/><circle cx="300" cy="220" r="4"/><circle cx="30" cy="280" r="4"/><circle cx="90" cy="280" r="4"/><circle cx="150" cy="280" r="4"/><circle cx="210" cy="280" r="4"/><circle cx="270" cy="280" r="4"/><circle cx="60" cy="340" r="4"/><circle cx="120" cy="340" r="4"/><circle cx="180" cy="340" r="4"/><circle cx="240" cy="340" r="4"/><circle cx="300" cy="340" r="4"/></g></svg>
